<?xml version="1.0" ?><!DOCTYPE svg  PUBLIC '-//W3C//DTD SVG 1.1//EN'  'http://www.w3.org/Graphics/SVG/1.1/DTD/svg11.dtd'><svg enable-background="new 0 0 512 512" height="512px" id="Layer_1" version="1.1" viewBox="0 0 512 512" width="512px" xml:space="preserve" xmlns="http://www.w3.org/2000/svg" xmlns:xlink="http://www.w3.org/1999/xlink"><g><path clip-rule="evenodd" d="M25.701,0h460.897C500.509,0,512,11.492,512,25.707v460.892   c0,13.91-11.491,25.401-25.401,25.401H25.701C11.492,512,0,500.509,0,486.599V25.707C0,11.492,11.492,0,25.701,0L25.701,0z    M304.529,195.668c0.311,2.119,0.91,4.232,1.22,6.351l-0.31-0.305C305.149,199.601,304.84,197.787,304.529,195.668L304.529,195.668   z M346.28,250.709c-9.074,8.464-20.875,15.119-34.186,19.057c5.745,12.4,9.073,26.001,9.073,40.221   c0,42.639-27.51,78.633-65.623,91.634c29.949-36.894,49.294-82.561,53.821-133.064c1.818-20.87,0.909-41.435-2.418-61.096   c1.818,6.355,17.237,0.91,22.983-2.113c-2.419,5.441-17.837,10.283-15.109,13.91c29.329,36.898,85.878,23.289,102.516-26.311   c10.893-32.966,4.526-79.843-11.182-100.103c-16.948,32.966-45.367,26.011-80.751,50.204   c-16.039,10.887-22.983,32.356-20.876,52.622c-10.871-49.899-37.492-94.662-74.995-128.832   c44.758,56.549,69.25,129.736,62.904,207.765c-3.927,47.176-18.437,90.725-41.13,128.228c-8.463,2.418-17.537,3.627-26.61,3.627   c-53.222,0-96.47-42.938-96.47-96.47c0-53.232,43.249-96.171,96.47-96.171c17.837,0,34.475,4.836,48.995,13.306   c4.237-11.492,4.836-29.944,4.237-41.436c-16.339-6.955-34.486-10.887-53.232-10.887c-74.696,0-135.183,60.791-135.183,135.188   c0,74.695,60.486,135.481,135.183,135.481c74.707,0,135.182-60.786,135.182-135.481C359.88,288.812,355.043,268.855,346.28,250.709   L346.28,250.709z" fill="#010101" fill-rule="evenodd"/></g></svg>